#N canvas 367 117 775 440 10;
#X obj 289 142 packOSC;
#X msg 58 81 connect localhost 9000;
#X obj 30 57 loadbang;
#X obj 584 69 unpackOSC;
#X obj 584 100 print RECEIVED;
#X text 284 33 Sending a message :;
#X obj 30 175 packOSC;
#X text 43 125 Subscribe to receive all messages;
#X msg 30 148 /sys/subscribe 9001 /;
#X msg 289 90 /some/address 1234 blabla;
#X obj 58 322 mrpeach/udpsend;
#X obj 584 37 mrpeach/udpreceive 9001;
#X connect 0 0 10 0;
#X connect 1 0 10 0;
#X connect 2 0 1 0;
#X connect 2 0 8 0;
#X connect 3 0 4 0;
#X connect 6 0 10 0;
#X connect 8 0 6 0;
#X connect 9 0 0 0;
#X connect 11 0 3 0;
